<svg width="68" height="16" viewBox="0 0 68 16" fill="none" xmlns="http://www.w3.org/2000/svg">
<g clip-path="url(#clip0_24594_131211)">
<path d="M8.12713 -0.167969C7.10041 -0.167969 6.21627 0.467949 5.87713 1.37749V1.38885L0.0703125 16.1616H3.55895L4.88849 12.4911H11.3658L12.7749 16.1616H16.343L10.3658 1.37749C10.0231 0.472613 9.15474 -0.167969 8.12713 -0.167969ZM32.6612 -0.156605C32.6612 1.67534 32.6393 5.32378 31.4794 7.82067C30.2101 10.5524 26.9422 12.05 25.968 12.0593V16.1048C29.7049 15.7286 32.2443 12.0726 33.1953 8.52521C34.0048 5.50852 33.9068 0.361859 33.9112 -0.156605H32.6612ZM34.6726 -0.156605C34.6726 -0.156605 34.6966 6.70645 34.5249 9.45703C34.2266 14.2482 32.8999 16.1048 32.8999 16.1048H38.1044C38.1044 16.1048 36.6704 14.2352 36.343 9.42294C36.1526 6.62598 36.1499 -0.156605 36.1499 -0.156605H34.6726ZM36.8999 -0.156605C36.9043 0.361859 36.8066 5.50852 37.6158 8.52521C38.5666 12.0726 41.0948 15.7286 44.8317 16.1048V12.0593C43.8571 12.05 40.5997 10.5524 39.3317 7.82067C38.1702 5.32378 38.1499 1.67534 38.1499 -0.156605H36.8999ZM15.4908 -0.0543324C14.9215 -0.0543324 14.4567 0.400654 14.4567 0.968395V2.6843H19.5249V16.1616H22.7862V2.6843H27.843V0.968395C27.843 0.400654 27.3894 -0.054332 26.8203 -0.0543324H15.4908ZM50.2067 -0.0543324C48.8828 -0.0543327 47.809 1.01949 47.809 2.34339V16.1502H51.0703V3.33203C51.0703 2.93009 51.3968 2.59339 51.7976 2.59339H53.9908C54.1903 2.59339 54.7927 2.61084 54.9112 2.62749C55.8836 2.70717 56.6706 3.40492 56.8999 4.32067C56.9121 4.35818 56.9268 4.39635 56.934 4.4343C56.9466 4.49024 56.9496 4.55016 56.9567 4.60476C56.9684 4.68976 56.968 4.77756 56.968 4.86612C56.968 5.70951 56.5088 6.43803 55.8203 6.82067C55.6809 6.90323 55.5292 6.97487 55.3771 7.03658C55.269 7.08563 55.1444 7.14014 55.0135 7.1843C54.1339 7.49436 53.7556 7.67232 53.3885 8.02521C52.9763 8.45557 52.7138 9.0411 52.7067 9.6843C52.7009 10.2882 52.9171 10.8366 53.2749 11.2638L57.4112 16.1502H61.2976L56.5476 10.4116C56.4504 10.2868 56.3885 10.1355 56.3885 9.9684C56.3885 9.81725 56.4456 9.68919 56.5249 9.57067C56.6489 9.42418 56.8657 9.33354 57.0135 9.26385C58.7595 8.46773 60.0021 6.80282 60.0021 4.86612C60.0021 2.26846 57.8206 0.132636 55.1158 -0.0316051C54.7789 -0.0648957 54.0249 -0.0543324 54.0249 -0.0543324H50.2067ZM63.9453 -0.0543324V16.1616H67.1953V-0.0543324H63.9453ZM8.08168 3.72976L10.3203 9.75249H5.88849L8.08168 3.72976Z" fill="white"/>
</g>
<defs>
<clipPath id="clip0_24594_131211">
<rect width="67.2727" height="16" fill="white"/>
</clipPath>
</defs>
</svg>
