<svg width="288" height="86" viewBox="0 0 288 86" fill="none" xmlns="http://www.w3.org/2000/svg">
<path d="M115.808 36V7.53333H126.178C133.701 7.53333 136.954 10.7867 136.954 15.0567C136.954 19.3267 131.871 20.3433 131.871 20.3433V20.5467C131.871 20.5467 139.394 21.36 139.394 27.46C139.394 32.1367 135.531 36 127.601 36H115.808ZM121.501 32.5433H127.601C131.058 32.5433 133.335 30.3067 133.335 27.46C133.335 24.6133 131.058 22.3767 127.601 22.3767H121.501V32.5433ZM121.501 19.1233H126.178C129.228 19.1233 130.854 17.4967 130.854 15.0567C130.854 12.6167 129.228 10.99 126.178 10.99H121.501V19.1233ZM150.188 36.61C144.902 36.61 141.852 33.56 141.852 29.9C141.852 25.8333 144.902 22.7833 150.188 22.7833C153.848 22.7833 156.695 24.41 156.695 24.41V23.3933C156.695 19.7333 154.662 17.7 151.408 17.7C147.748 17.7 145.512 20.5467 145.512 20.5467L143.885 19.1233C143.885 19.1233 146.528 15.0567 152.222 15.0567C158.322 15.0567 161.982 18.7167 161.982 23.3933V30.7133C161.982 34.3733 162.592 36 162.592 36H157.305C157.305 36 156.898 34.3733 156.898 33.56H156.695C156.695 33.56 154.662 36.61 150.188 36.61ZM151.408 33.9667C154.662 33.9667 156.695 30.7133 156.695 30.7133V26.85C156.695 26.85 154.662 25.4267 151.408 25.4267C149.172 25.4267 147.342 27.2567 147.342 29.9C147.342 32.1367 149.172 33.9667 151.408 33.9667ZM177.637 36.61C170.927 36.61 166.047 31.73 166.047 25.8333C166.047 19.9367 170.927 15.0567 177.637 15.0567C183.33 15.0567 185.973 19.1233 185.973 19.1233L184.347 20.5467C184.347 20.5467 182.11 17.7 178.45 17.7C174.383 17.7 171.537 20.5467 171.537 25.8333C171.537 31.12 174.383 33.9667 178.45 33.9667C182.517 33.9667 184.957 30.3067 184.957 30.3067L186.583 31.73C186.583 31.73 183.737 36.61 177.637 36.61ZM190.226 36V6.72H195.513V24.0033H199.579L205.273 15.6667H209.543L203.443 24.8167L210.966 36H204.459L198.563 27.0533H195.513V36H190.226ZM115.604 79V58.6667H120.891V79H115.604ZM118.248 55.4133C116.621 55.4133 115.198 53.99 115.198 52.3633C115.198 50.7367 116.621 49.3133 118.248 49.3133C119.874 49.3133 121.298 50.7367 121.298 52.3633C121.298 53.99 119.874 55.4133 118.248 55.4133ZM126.362 79V63.9533C126.362 60.2933 125.752 58.6667 125.752 58.6667H131.039C131.039 58.6667 131.445 60.2933 131.445 61.1067H131.649C131.649 61.1067 133.682 58.0567 138.155 58.0567C143.442 58.0567 146.695 61.31 146.695 65.58V79H141.409V65.58C141.409 62.53 139.579 60.7 136.935 60.7C133.682 60.7 131.649 63.9533 131.649 63.9533V79H126.362ZM172.504 79.8133C164.168 79.8133 160.508 73.51 160.508 73.51L162.338 71.68C162.338 71.68 165.591 76.56 171.691 76.56C175.758 76.56 177.994 74.3233 177.994 71.07C177.994 65.9867 162.338 66.8 162.338 57.4467C162.338 53.5833 166.201 49.72 172.911 49.72C180.028 49.72 183.688 55.21 183.688 55.21L181.858 56.8367C181.858 56.8367 178.401 52.9733 173.724 52.9733C170.471 52.9733 168.438 55.0067 168.438 57.4467C168.438 62.7333 184.094 61.7167 184.094 71.07C184.094 75.5433 179.824 79.8133 172.504 79.8133ZM197.306 79.61C192.629 79.61 189.579 76.3567 189.579 71.68V61.7167H186.123V58.6667H189.986L192.629 52.77H194.866V58.6667H200.966L200.356 61.7167H194.866V71.68C194.866 75.34 196.493 76.9667 198.526 76.9667C200.966 76.9667 202.389 74.9333 202.389 74.9333L203.813 76.56C203.813 76.56 201.779 79.61 197.306 79.61ZM216.035 79.61C209.528 79.61 204.648 74.73 204.648 68.8333C204.648 62.9367 209.528 58.0567 216.035 58.0567C222.542 58.0567 227.422 62.9367 227.422 68.8333C227.422 74.73 222.542 79.61 216.035 79.61ZM216.035 76.9667C219.085 76.9667 221.932 74.12 221.932 68.8333C221.932 63.5467 219.085 60.7 216.035 60.7C212.985 60.7 210.138 63.5467 210.138 68.8333C210.138 74.12 212.985 76.9667 216.035 76.9667ZM241.854 79.61C235.144 79.61 230.264 74.73 230.264 68.8333C230.264 62.9367 235.144 58.0567 241.854 58.0567C247.547 58.0567 250.19 62.1233 250.19 62.1233L248.564 63.5467C248.564 63.5467 246.327 60.7 242.667 60.7C238.6 60.7 235.754 63.5467 235.754 68.8333C235.754 74.12 238.6 76.9667 242.667 76.9667C246.734 76.9667 249.174 73.3067 249.174 73.3067L250.8 74.73C250.8 74.73 247.954 79.61 241.854 79.61ZM254.443 79V49.72H259.729V67.0033H263.796L269.489 58.6667H273.759L267.659 67.8167L275.183 79H268.676L262.779 70.0533H259.729V79H254.443ZM281.087 79.4067C279.257 79.4067 278.037 78.1867 278.037 76.56C278.037 74.9333 279.257 73.7133 281.087 73.7133C282.917 73.7133 284.137 74.9333 284.137 76.56C284.137 78.1867 282.917 79.4067 281.087 79.4067ZM279.664 70.6633L278.241 62.9367V50.5333H283.934V62.9367L282.511 70.6633H279.664Z" fill="#003BAF"/>
<g clip-path="url(#clip0_18742_8955)">
<path d="M45.1036 0.00579924C51.6607 -0.0468919 58.1912 0.242909 64.6352 1.56019C71.3186 2.93016 77.4501 5.41981 82.3845 10.2806C86.4943 14.3246 89.0414 19.2051 90.3515 24.7706C92.1537 32.424 92.7854 40.163 92.2069 48.0008C91.8012 53.4148 91.0431 58.7696 89.2276 63.9201C86.4545 71.7777 81.0678 77.2773 73.46 80.6825C68.1465 83.0602 62.4805 84.0679 56.7148 84.5619C49.0738 85.2139 41.4261 85.2008 33.7983 84.3643C27.6469 83.6859 21.6484 82.3818 16.2152 79.2862C8.92661 75.1368 4.28478 68.9521 2.28308 60.8706C-0.716156 48.7846 -0.769357 36.6722 2.17667 24.5796C5.06285 12.6912 12.9034 5.5713 24.6011 2.34397C31.3045 0.493192 38.1874 0.0848359 45.1036 0.00579924Z" fill="#CCDCFE"/>
<path d="M36.064 55.7208C35.9975 56.1621 35.9642 56.61 35.9642 57.0644C35.9642 62.3204 40.3534 66.6674 46.2055 66.6674C52.0577 66.6674 56.4468 62.3204 56.4468 57.0644C56.4468 56.61 56.4135 56.1621 56.347 55.7208H36.0573H36.064Z" fill="#003BAF"/>
<path d="M70.3591 55.7208C70.1729 53.9162 69.9534 52.1115 69.6874 50.3068C68.0049 39.6237 64.6931 24.9426 53.8267 19.7921C51.3794 18.7251 48.7593 18.2574 46.1723 18.376C28.6159 18.0138 23.6881 39.7949 22.0654 55.7208H31.9676C31.9676 44.5767 33.3707 30.1064 41.3044 25.1139C42.7541 24.2642 44.4898 23.7834 46.2521 23.6846C58.5084 24.5013 60.4303 42.8774 60.4436 55.7274H70.3591V55.7208Z" fill="#003BAF"/>
</g>
<defs>
<clipPath id="clip0_18742_8955">
<rect width="92.4242" height="85.0303" fill="white"/>
</clipPath>
</defs>
</svg>
