<svg width="640" height="230" viewBox="0 0 640 230" fill="none" xmlns="http://www.w3.org/2000/svg">
<path d="M125.035 0C57.1761 0 0 11.63 0 114.99C0 218.35 54.6154 230 125.035 230C195.455 230 250.07 218.35 250.07 114.99C250.07 11.63 192.894 0 125.035 0ZM125.035 180C107.885 180 95.0267 167.88 95.0267 153.635C95.0267 152.4 95.1317 151.19 95.3168 150H154.754C154.939 151.19 155.044 152.405 155.044 153.635C155.044 167.88 142.185 180 125.035 180ZM165.046 150C165.046 150 164.796 111.205 153.868 87.76C143.11 64.68 128.066 65 125.035 65C122.004 65 106.955 64.675 96.2021 87.76C85.274 111.205 85.0239 150 85.0239 150H60.0169C60.0169 150 62.9077 100.4 82.3081 73.515C100.653 48.095 118.418 50.02 125.035 50.04C131.657 50.02 149.417 48.095 167.762 73.515C187.163 100.4 190.053 150 190.053 150H165.046Z" fill="white"/>
<path d="M310.152 20.3643H323.966L365.963 76.1593H366.518V20.3643H376.461V97.6993H362.647L320.65 41.9043H320.1V97.6993H310.152V20.3643Z" fill="white"/>
<path d="M388.609 70.0847C388.609 54.0647 401.873 40.8047 419.553 40.8047C437.233 40.8047 450.497 54.0647 450.497 70.0847C450.497 86.1047 437.233 99.3647 419.553 99.3647C401.873 99.3647 388.609 86.1047 388.609 70.0847ZM435.578 70.0847C435.578 55.7197 427.84 47.9897 419.553 47.9897C411.266 47.9897 403.529 55.7247 403.529 70.0847C403.529 84.4447 411.266 92.1797 419.553 92.1797C427.84 92.1797 435.578 84.4447 435.578 70.0847Z" fill="white"/>
<path d="M465.406 77.8145V50.7445H456.014V42.4595H466.512L473.694 26.4395H479.77V42.4595H496.345L494.685 50.7445H479.765V77.8145C479.765 87.7595 484.187 92.1795 489.713 92.1795C496.345 92.1795 500.211 86.6545 500.211 86.6545L504.077 91.0744C504.077 91.0744 498.551 99.3595 486.397 99.3595C474.244 99.3595 465.401 90.5195 465.401 77.8145H465.406Z" fill="white"/>
<path d="M510.713 25.3397C510.713 20.9197 514.584 17.0547 519 17.0547C523.416 17.0547 527.288 20.9197 527.288 25.3397C527.288 29.7597 523.422 33.6247 519 33.6247C514.579 33.6247 510.713 29.7597 510.713 25.3397ZM511.818 42.4647H526.187V97.7047H511.818V42.4647Z" fill="white"/>
<path d="M544.963 51.855H535.57V43.57H544.963V40.255C544.963 27.55 553.25 18.71 565.959 18.71C578.667 18.71 583.639 26.995 583.639 26.995L579.773 31.415C579.773 31.415 575.902 25.89 569.275 25.89C563.748 25.89 559.327 30.31 559.327 40.255V43.57H575.902L574.241 51.855H559.322V97.705H544.953V51.855H544.963Z" fill="white"/>
<path d="M585.294 109.305L589.716 105.44C589.716 105.44 595.792 114.83 606.845 114.83C617.898 114.83 625.631 107.095 625.631 94.3898V91.6298H625.08C625.08 91.6298 619.004 99.3648 607.951 99.3648C593.587 99.3648 584.744 90.5248 584.744 78.9248V42.4648H599.108V78.9248C599.108 87.2098 604.085 92.1848 611.267 92.1848C620.109 92.1848 625.631 83.3448 625.631 83.3448V42.4648H640V94.3898C640 108.755 626.736 122.01 609.056 122.01C592.476 122.01 585.294 109.305 585.294 109.305Z" fill="white"/>
<path d="M310.152 132.425H324.521L354.36 177.72H354.915L384.753 132.425H397.462V209.76H381.993V154.52H381.437L353.259 197.61H349.388L320.32 154.52H319.545V209.76H310.152V132.425Z" fill="white"/>
<path d="M409.601 182.144C409.601 165.574 422.309 152.864 439.439 152.864C456.569 152.864 469.277 165.569 469.277 181.039C469.277 183.799 468.727 186.009 468.727 186.009H424.52C425.625 196.504 433.362 204.239 443.305 204.239C454.358 204.239 460.985 194.294 460.985 194.294L465.406 198.159C465.406 198.159 457.669 211.419 441.095 211.419C422.859 211.419 409.596 198.159 409.596 182.139L409.601 182.144ZM454.363 177.724C454.363 167.229 447.181 160.049 439.444 160.049C431.707 160.049 424.525 167.229 424.525 177.724H454.363Z" fill="white"/>
<path d="M480.875 203.135C480.875 198.715 484.191 195.4 489.162 195.4C494.134 195.4 497.45 198.715 497.45 203.135C497.45 207.555 494.134 210.87 489.162 210.87C484.191 210.87 480.875 207.555 480.875 203.135ZM481.43 166.125V132.43H496.9V166.125L493.028 187.115H485.296L481.425 166.125H481.43Z" fill="white"/>
</svg>
