<svg width="229" height="89" viewBox="0 0 229 89" fill="none" xmlns="http://www.w3.org/2000/svg">
<path d="M115.808 36V7.53333H121.501V32.5433H136.548L135.938 36H115.808ZM149.952 36.61C143.445 36.61 138.565 31.73 138.565 25.8333C138.565 19.9367 143.445 15.0567 149.952 15.0567C156.458 15.0567 161.338 19.9367 161.338 25.8333C161.338 31.73 156.458 36.61 149.952 36.61ZM149.952 33.9667C153.002 33.9667 155.848 31.12 155.848 25.8333C155.848 20.5467 153.002 17.7 149.952 17.7C146.902 17.7 144.055 20.5467 144.055 25.8333C144.055 31.12 146.902 33.9667 149.952 33.9667ZM169.689 36L162.573 15.6667H168.469L173.146 28.8833H173.349L177.823 15.6667H182.703L187.379 28.8833H187.583L192.056 15.6667H195.513L188.396 36H183.923L179.043 22.1733H178.839L174.163 36H169.689ZM125.364 79.8133C117.028 79.8133 113.368 73.51 113.368 73.51L115.198 71.68C115.198 71.68 118.451 76.56 124.551 76.56C128.618 76.56 130.854 74.3233 130.854 71.07C130.854 65.9867 115.198 66.8 115.198 57.4467C115.198 53.5833 119.061 49.72 125.771 49.72C132.888 49.72 136.548 55.21 136.548 55.21L134.718 56.8367C134.718 56.8367 131.261 52.9733 126.584 52.9733C123.331 52.9733 121.298 55.0067 121.298 57.4467C121.298 62.7333 136.954 61.7167 136.954 71.07C136.954 75.5433 132.684 79.8133 125.364 79.8133ZM150.166 79.61C145.489 79.61 142.439 76.3567 142.439 71.68V61.7167H138.983V58.6667H142.846L145.489 52.77H147.726V58.6667H153.826L153.216 61.7167H147.726V71.68C147.726 75.34 149.353 76.9667 151.386 76.9667C153.826 76.9667 155.249 74.9333 155.249 74.9333L156.673 76.56C156.673 76.56 154.639 79.61 150.166 79.61ZM168.895 79.61C162.388 79.61 157.508 74.73 157.508 68.8333C157.508 62.9367 162.388 58.0567 168.895 58.0567C175.402 58.0567 180.282 62.9367 180.282 68.8333C180.282 74.73 175.402 79.61 168.895 79.61ZM168.895 76.9667C171.945 76.9667 174.792 74.12 174.792 68.8333C174.792 63.5467 171.945 60.7 168.895 60.7C165.845 60.7 162.998 63.5467 162.998 68.8333C162.998 74.12 165.845 76.9667 168.895 76.9667ZM194.714 79.61C188.004 79.61 183.124 74.73 183.124 68.8333C183.124 62.9367 188.004 58.0567 194.714 58.0567C200.407 58.0567 203.05 62.1233 203.05 62.1233L201.424 63.5467C201.424 63.5467 199.187 60.7 195.527 60.7C191.46 60.7 188.614 63.5467 188.614 68.8333C188.614 74.12 191.46 76.9667 195.527 76.9667C199.594 76.9667 202.034 73.3067 202.034 73.3067L203.66 74.73C203.66 74.73 200.814 79.61 194.714 79.61ZM207.303 79V49.72H212.589V67.0033H216.656L222.349 58.6667H226.619L220.519 67.8167L228.043 79H221.536L215.639 70.0533H212.589V79H207.303Z" fill="#FFFFFF"/>
<g clip-path="url(#clip0_18742_8957)">
<path d="M45.1036 3.70279C51.6607 3.6501 58.1912 3.9399 64.6352 5.25718C71.3186 6.62715 77.4501 9.1168 82.3845 13.9776C86.4943 18.0216 89.0414 22.9021 90.3515 28.4676C92.1537 36.121 92.7854 43.86 92.2069 51.6978C91.8012 57.1118 91.0431 62.4666 89.2276 67.6171C86.4545 75.4747 81.0678 80.9743 73.46 84.3795C68.1465 86.7572 62.4805 87.7649 56.7148 88.2589C49.0738 88.9109 41.4261 88.8978 33.7983 88.0613C27.6469 87.3829 21.6484 86.0788 16.2152 82.9832C8.92661 78.8337 4.28478 72.6491 2.28308 64.5676C-0.716156 52.4816 -0.769357 40.3692 2.17667 28.2766C5.06285 16.3882 12.9034 9.26829 24.6011 6.04096C31.3045 4.19018 38.1874 3.78183 45.1036 3.70279Z" fill="#FBD9D5"/>
<path d="M36.064 59.4177C35.9975 59.859 35.9642 60.3069 35.9642 60.7613C35.9642 66.0173 40.3534 70.3643 46.2055 70.3643C52.0577 70.3643 56.4468 66.0173 56.4468 60.7613C56.4468 60.3069 56.4135 59.859 56.347 59.4177H36.0573H36.064Z" fill="#EE442E"/>
<path d="M70.3591 59.4178C70.1729 57.6131 69.9534 55.8085 69.6874 54.0038C68.0049 43.3207 64.6931 28.6396 53.8267 23.489C51.3794 22.422 48.7593 21.9544 46.1723 22.073C28.6159 21.7107 23.6881 43.4919 22.0654 59.4178H31.9676C31.9676 48.2736 33.3707 33.8033 41.3044 28.8108C42.7541 27.9612 44.4898 27.4804 46.2521 27.3816C58.5084 28.1983 60.4303 46.5743 60.4436 59.4244H70.3591V59.4178Z" fill="#EE442E"/>
</g>
<defs>
<clipPath id="clip0_18742_8957">
<rect width="92.4242" height="85.0303" fill="white" transform="translate(0 3.69699)"/>
</clipPath>
</defs>
</svg>
