<svg width="36" height="34" viewBox="0 0 36 34" fill="none" xmlns="http://www.w3.org/2000/svg">
<path id="Vector" d="M17.9233 0.510742C8.19599 0.510742 0 2.17833 0 16.9988C0 31.8192 7.82891 33.4897 17.9233 33.4897C28.0178 33.4897 35.8467 31.8192 35.8467 16.9988C35.8467 2.17833 27.6507 0.510742 17.9233 0.510742ZM17.9233 26.3204C15.465 26.3204 13.6217 24.5825 13.6217 22.54C13.6217 22.3629 13.6368 22.1894 13.6633 22.0188H22.1834C22.2099 22.1894 22.2249 22.3636 22.2249 22.54C22.2249 24.5825 20.3817 26.3204 17.9233 26.3204ZM23.6588 22.0188C23.6588 22.0188 23.623 16.4561 22.0565 13.0944C20.5143 9.785 18.3578 9.83088 17.9233 9.83088C17.4889 9.83088 15.3316 9.78428 13.7902 13.0944C12.2237 16.4561 12.1879 22.0188 12.1879 22.0188H8.6032C8.6032 22.0188 9.01759 14.9068 11.7986 11.0518C14.4283 7.40693 16.9748 7.68295 17.9233 7.68581C18.8726 7.68295 21.4184 7.40693 24.0481 11.0518C26.8291 14.9068 27.2435 22.0188 27.2435 22.0188H23.6588Z" fill="#FEFEFC"/>
</svg>
