<svg width="232" height="86" viewBox="0 0 232 86" fill="none" xmlns="http://www.w3.org/2000/svg">
<path d="M115.808 36V7.53333H126.991C134.921 7.53333 138.988 11.6 138.988 16.8867C138.988 22.2547 134.921 26.24 126.991 26.24H121.501V36H115.808ZM121.501 22.7833H126.991C130.448 22.7833 132.888 20.3433 132.888 16.8867C132.888 13.43 130.448 10.99 126.991 10.99H121.501V22.7833ZM143.042 36V20.9533C143.042 17.2933 142.432 15.6667 142.432 15.6667H147.718C147.718 15.6667 148.125 17.2933 148.125 18.1067H148.328C148.328 18.1067 150.362 15.0567 154.835 15.0567C156.462 15.0567 157.478 15.6667 157.478 15.6667L156.462 18.92C156.462 18.92 155.242 18.5133 153.615 18.5133C150.768 18.5133 148.328 20.9533 148.328 20.9533V36H143.042ZM169.694 36.61C162.984 36.61 158.104 31.73 158.104 25.8333C158.104 19.7333 162.781 15.0567 169.084 15.0567C175.387 15.0567 180.064 19.7333 180.064 25.4267C180.064 26.4433 179.861 27.2567 179.861 27.2567H163.594C164.001 31.12 166.847 33.9667 170.507 33.9667C174.574 33.9667 177.014 30.3067 177.014 30.3067L178.641 31.73C178.641 31.73 175.794 36.61 169.694 36.61ZM163.594 24.2067H174.574C174.574 20.3433 171.931 17.7 169.084 17.7C166.237 17.7 163.594 20.3433 163.594 24.2067ZM129.838 79.8133C121.094 79.8133 114.384 73.1033 114.384 64.7667C114.384 56.43 121.094 49.72 129.838 49.72C138.581 49.72 145.291 56.43 145.291 64.7667C145.291 73.1033 138.581 79.8133 129.838 79.8133ZM129.838 76.56C134.718 76.56 139.191 72.0867 139.191 64.7667C139.191 57.4467 134.718 52.9733 129.838 52.9733C124.958 52.9733 120.484 57.4467 120.484 64.7667C120.484 72.0867 124.958 76.56 129.838 76.56ZM149.555 79V63.9533C149.555 60.2933 148.945 58.6667 148.945 58.6667H154.231C154.231 58.6667 154.638 60.2933 154.638 61.1067H154.841C154.841 61.1067 156.875 58.0567 161.348 58.0567C162.975 58.0567 163.991 58.6667 163.991 58.6667L162.975 61.92C162.975 61.92 161.755 61.5133 160.128 61.5133C157.281 61.5133 154.841 63.9533 154.841 63.9533V79H149.555ZM175.19 79.61C169.294 79.61 164.617 74.9333 164.617 68.8333C164.617 62.7333 169.294 58.0567 175.19 58.0567C179.257 58.0567 181.494 60.9033 181.494 60.9033H181.697V49.72H186.984V73.7133C186.984 77.3733 187.594 79 187.594 79H182.307C182.307 79 181.9 77.3733 181.9 76.56H181.697C181.697 76.56 179.664 79.61 175.19 79.61ZM176.41 76.9667C179.664 76.9667 181.697 73.7133 181.697 73.7133V63.9533C181.697 63.9533 179.257 60.7 176.41 60.7C172.954 60.7 170.107 63.5467 170.107 68.8333C170.107 74.12 172.954 76.9667 176.41 76.9667ZM202.855 79.61C196.145 79.61 191.265 74.73 191.265 68.8333C191.265 62.7333 195.942 58.0567 202.245 58.0567C208.548 58.0567 213.225 62.7333 213.225 68.4267C213.225 69.4433 213.022 70.2567 213.022 70.2567H196.755C197.162 74.12 200.008 76.9667 203.668 76.9667C207.735 76.9667 210.175 73.3067 210.175 73.3067L211.802 74.73C211.802 74.73 208.955 79.61 202.855 79.61ZM196.755 67.2067H207.735C207.735 63.3433 205.092 60.7 202.245 60.7C199.398 60.7 196.755 63.3433 196.755 67.2067ZM217.107 79V63.9533C217.107 60.2933 216.497 58.6667 216.497 58.6667H221.784C221.784 58.6667 222.191 60.2933 222.191 61.1067H222.394C222.394 61.1067 224.427 58.0567 228.901 58.0567C230.527 58.0567 231.544 58.6667 231.544 58.6667L230.527 61.92C230.527 61.92 229.307 61.5133 227.681 61.5133C224.834 61.5133 222.394 63.9533 222.394 63.9533V79H217.107Z" fill="#FFFFFF"/>
<g clip-path="url(#clip0_18742_8956)">
<path d="M45.1036 0.00579924C51.6607 -0.0468919 58.1912 0.242909 64.6352 1.56019C71.3186 2.93016 77.4501 5.41981 82.3845 10.2806C86.4943 14.3246 89.0414 19.2051 90.3515 24.7706C92.1537 32.424 92.7854 40.163 92.2069 48.0008C91.8012 53.4148 91.0431 58.7696 89.2276 63.9201C86.4545 71.7777 81.0678 77.2773 73.46 80.6825C68.1465 83.0602 62.4805 84.0679 56.7148 84.5619C49.0738 85.2139 41.4261 85.2008 33.7983 84.3643C27.6469 83.6859 21.6484 82.3818 16.2152 79.2862C8.92661 75.1368 4.28478 68.9521 2.28308 60.8706C-0.716156 48.7846 -0.769357 36.6722 2.17667 24.5796C5.06285 12.6912 12.9034 5.5713 24.6011 2.34397C31.3045 0.493192 38.1874 0.0848359 45.1036 0.00579924Z" fill="#CFF0E4"/>
<path d="M36.064 55.7207C35.9975 56.162 35.9642 56.6099 35.9642 57.0644C35.9642 62.3203 40.3534 66.6673 46.2055 66.6673C52.0577 66.6673 56.4468 62.3203 56.4468 57.0644C56.4468 56.6099 56.4135 56.162 56.347 55.7207H36.0573H36.064Z" fill="#5FD0A6"/>
<path d="M70.3591 55.7208C70.1729 53.9161 69.9534 52.1115 69.6874 50.3068C68.0049 39.6237 64.6931 24.9426 53.8267 19.792C51.3794 18.725 48.7593 18.2574 46.1723 18.376C28.6159 18.0137 23.6881 39.7949 22.0654 55.7208H31.9676C31.9676 44.5766 33.3707 30.1063 41.3044 25.1138C42.7541 24.2642 44.4898 23.7834 46.2521 23.6846C58.5084 24.5013 60.4303 42.8773 60.4436 55.7274H70.3591V55.7208Z" fill="#5FD0A6"/>
</g>
<defs>
<clipPath id="clip0_18742_8956">
<rect width="92.4242" height="85.0303" fill="white"/>
</clipPath>
</defs>
</svg>
