<svg width="212" height="89" viewBox="0 0 212 89" fill="none" xmlns="http://www.w3.org/2000/svg">
<path d="M122.111 36L113.368 7.53333H119.468L125.771 28.4767H125.974L132.481 7.53333H137.361L143.868 28.4767H144.071L150.578 7.53333H154.238L145.494 36H140.208L133.904 15.6667H133.701L127.398 36H122.111ZM157.701 36V15.6667H162.987V36H157.701ZM160.344 12.4133C158.717 12.4133 157.294 10.99 157.294 9.36333C157.294 7.73666 158.717 6.31333 160.344 6.31333C161.971 6.31333 163.394 7.73666 163.394 9.36333C163.394 10.99 161.971 12.4133 160.344 12.4133ZM175.168 36.61C169.068 36.61 166.222 31.73 166.222 31.73L167.848 30.3067C167.848 30.3067 170.288 33.9667 174.355 33.9667C177.405 33.9667 179.032 32.34 179.032 30.3067C179.032 27.0533 167.442 27.8667 167.442 20.9533C167.442 17.9033 170.288 15.0567 176.185 15.0567C181.472 15.0567 184.115 18.7167 184.115 18.7167L182.488 20.14C182.488 20.14 180.252 17.7 176.998 17.7C174.355 17.7 172.932 19.1233 172.932 20.9533C172.932 24.2067 184.522 23.3933 184.522 30.3067C184.522 33.56 181.472 36.61 175.168 36.61ZM188.598 36V6.72H193.884V17.9033H194.088C194.088 17.9033 196.324 15.0567 200.391 15.0567C205.678 15.0567 208.931 18.31 208.931 22.58V36H203.644V22.58C203.644 19.53 201.814 17.7 199.171 17.7C195.918 17.7 193.884 20.9533 193.884 20.9533V36H188.598ZM115.808 79V50.5333H121.501V75.5433H136.548L135.938 79H115.808ZM139.988 79V58.6667H145.275V79H139.988ZM142.632 55.4133C141.005 55.4133 139.582 53.99 139.582 52.3633C139.582 50.7367 141.005 49.3133 142.632 49.3133C144.258 49.3133 145.682 50.7367 145.682 52.3633C145.682 53.99 144.258 55.4133 142.632 55.4133ZM157.456 79.61C151.356 79.61 148.509 74.73 148.509 74.73L150.136 73.3067C150.136 73.3067 152.576 76.9667 156.643 76.9667C159.693 76.9667 161.319 75.34 161.319 73.3067C161.319 70.0533 149.729 70.8667 149.729 63.9533C149.729 60.9033 152.576 58.0567 158.473 58.0567C163.759 58.0567 166.403 61.7167 166.403 61.7167L164.776 63.14C164.776 63.14 162.539 60.7 159.286 60.7C156.643 60.7 155.219 62.1233 155.219 63.9533C155.219 67.2067 166.809 66.3933 166.809 73.3067C166.809 76.56 163.759 79.61 157.456 79.61ZM179.832 79.61C175.155 79.61 172.105 76.3567 172.105 71.68V61.7167H168.649V58.6667H172.512L175.155 52.77H177.392V58.6667H183.492L182.882 61.7167H177.392V71.68C177.392 75.34 179.019 76.9667 181.052 76.9667C183.492 76.9667 184.915 74.9333 184.915 74.9333L186.339 76.56C186.339 76.56 184.305 79.61 179.832 79.61Z" fill="#FFFFFF"/>
<g clip-path="url(#clip0_18742_8958)">
<path d="M45.1036 3.70279C51.6607 3.6501 58.1912 3.9399 64.6352 5.25718C71.3186 6.62715 77.4501 9.1168 82.3845 13.9776C86.4943 18.0216 89.0414 22.9021 90.3515 28.4676C92.1537 36.121 92.7854 43.86 92.2069 51.6978C91.8012 57.1118 91.0431 62.4666 89.2276 67.6171C86.4545 75.4747 81.0678 80.9743 73.46 84.3795C68.1465 86.7572 62.4805 87.7649 56.7148 88.2589C49.0738 88.9109 41.4261 88.8978 33.7983 88.0613C27.6469 87.3829 21.6484 86.0788 16.2152 82.9832C8.92661 78.8337 4.28478 72.6491 2.28308 64.5676C-0.716156 52.4816 -0.769357 40.3692 2.17667 28.2766C5.06285 16.3882 12.9034 9.26829 24.6011 6.04096C31.3045 4.19018 38.1874 3.78183 45.1036 3.70279Z" fill="#EBD3FC"/>
<path d="M36.064 59.4177C35.9975 59.859 35.9642 60.3069 35.9642 60.7613C35.9642 66.0173 40.3534 70.3643 46.2055 70.3643C52.0577 70.3643 56.4468 66.0173 56.4468 60.7613C56.4468 60.3069 56.4135 59.859 56.347 59.4177H36.0573H36.064Z" fill="#9B26F0"/>
<path d="M70.3591 59.4178C70.1729 57.6131 69.9534 55.8084 69.6874 54.0038C68.0049 43.3206 64.6931 28.6396 53.8267 23.489C51.3794 22.422 48.7593 21.9544 46.1723 22.0729C28.6159 21.7107 23.6881 43.4919 22.0654 59.4178H31.9676C31.9676 48.2736 33.3707 33.8033 41.3044 28.8108C42.7541 27.9612 44.4898 27.4804 46.2521 27.3816C58.5084 28.1983 60.4303 46.5743 60.4436 59.4244H70.3591V59.4178Z" fill="#9B26F0"/>
</g>
<defs>
<clipPath id="clip0_18742_8958">
<rect width="92.4242" height="85.0303" fill="white" transform="translate(0 3.69699)"/>
</clipPath>
</defs>
</svg>
